<?xml version="1.0" encoding="iso-8859-1"?>
<!-- Generator: Adobe Illustrator 19.0.0, SVG Export Plug-In . SVG Version: 6.00 Build 0)  -->
<svg version="1.1" id="Capa_1" xmlns="http://www.w3.org/2000/svg" xmlns:xlink="http://www.w3.org/1999/xlink" x="0px" y="0px"
	 viewBox="0 0 382.937 382.937" style="enable-background:new 0 0 382.937 382.937;" xml:space="preserve">
<g>
	<path style="fill:#000001;" d="M133.263,270.467l-18-24c-1.896-2.496-5.464-2.976-7.96-1.08c-0.408,0.312-0.768,0.672-1.08,1.08
		l-18,24c-1.544,2.032-1.544,4.848,0,6.88l18,24c1.896,2.496,5.464,2.976,7.96,1.08c0.408-0.312,0.768-0.672,1.08-1.08l18-24
		C134.807,275.315,134.807,272.499,133.263,270.467z M110.703,288.467l-11.04-14.64l11.04-14.64l11.04,14.64L110.703,288.467z"/>
	<path style="fill:#000001;" d="M295.903,270.467l-18-24c-1.896-2.496-5.464-2.976-7.96-1.08c-0.408,0.312-0.768,0.672-1.08,1.08
		l-18,24c-1.544,2.032-1.544,4.848,0,6.88l18,24c1.896,2.496,5.464,2.976,7.96,1.08c0.408-0.312,0.768-0.672,1.08-1.08l18-24
		C297.447,275.315,297.447,272.499,295.903,270.467z M273.343,288.467l-11.04-14.64l11.04-14.64l11.04,14.64L273.343,288.467z"/>
	<path style="fill:#000001;" d="M221.503,264.627l-25.2-33.12c-1.896-2.496-5.464-2.976-7.96-1.08
		c-0.408,0.312-0.768,0.672-1.08,1.08l-25.28,33.6c-1.544,2.032-1.544,4.848,0,6.88l25.28,33.6c1.896,2.496,5.464,2.976,7.96,1.08
		c0.408-0.312,0.768-0.672,1.08-1.08l25.2-34.08C223.047,269.475,223.047,266.659,221.503,264.627z M191.743,292.147l-18.24-24
		l18.24-24l18.24,24L191.743,292.147z"/>
	<path style="fill:#000001;" d="M377.567,86.339c-8.28-10.072-23.144-11.52-33.216-3.248s-11.52,23.144-3.248,33.216l-65.92,43.2
		c-2.616,1.792-3.328,5.344-1.6,8c1.024,1.592,1.912,3.264,2.648,5c7.104,16.76-0.728,36.104-17.48,43.208
		c-16.76,7.104-36.104-0.728-43.208-17.488s0.728-36.104,17.48-43.208c2.848-1.216,4.208-4.488,3.04-7.36l-36.32-85.832
		c8.568-2.648,15.272-9.352,17.912-17.912c4.416-14.312-3.6-29.496-17.912-33.912c-14.312-4.416-29.496,3.6-33.912,17.912
		s3.6,29.496,17.912,33.912l-36.48,86c-1.168,2.872,0.192,6.144,3.04,7.36c12.152,5.16,20.056,17.072,20.08,30.28
		c0.032,18.2-14.696,32.984-32.896,33.024s-32.984-14.696-33.024-32.896c-0.008-6.432,1.888-12.72,5.44-18.08
		c0.032-0.048,0.064-0.096,0.096-0.152c1.696-2.64,0.936-6.152-1.696-7.848l-65.84-43.04c4.832-5.816,6.648-13.568,4.888-20.92
		c-3.08-12.896-16.024-20.848-28.92-17.768s-20.848,16.024-17.768,28.92s16.024,20.848,28.92,17.768l42.16,194.552h-12.48
		c-15.224,0-27.56,12.336-27.56,27.56s12.336,27.56,27.56,27.56h264.88c15.224,0,27.56-12.336,27.56-27.56
		s-12.336-27.56-27.56-27.56h-12.4l42.24-194.72c7.152,1.664,14.664-0.088,20.336-4.752
		C384.391,111.275,385.847,96.403,377.567,86.339z M23.743,113.827c-6.808,0-12.32-5.512-12.32-12.32s5.512-12.32,12.32-12.32
		s12.32,5.512,12.32,12.32S30.551,113.827,23.743,113.827z M175.743,36.147c0-8.84,7.16-16,16-16s16,7.16,16,16s-7.16,16-16,16
		S175.743,44.987,175.743,36.147z M323.983,330.387h0.24c8.968,0,16.24,7.272,16.24,16.24s-7.272,16.24-16.24,16.24H59.263
		c-8.968,0-16.24-7.272-16.24-16.24s7.272-16.24,16.24-16.24H323.983z M300.303,319.027H82.943l0.16-0.4l-40.96-189.28l55.44,36.4
		c-10.16,20.856-2.52,46.024,17.528,57.704c21.144,12.328,48.28,5.176,60.608-15.976c12.328-21.144,5.176-48.28-15.976-60.608
		l32-75.36l32,75.68c-20.096,11.648-27.792,36.84-17.632,57.728c10.704,22.008,37.232,31.176,59.24,20.472
		s31.176-37.232,20.472-59.24l55.44-36.4L300.303,319.027z M359.743,113.667c-6.808,0-12.32-5.52-12.32-12.32
		s5.512-12.32,12.32-12.32v0.16c6.744,0,12.232,5.416,12.32,12.16C372.063,108.155,366.551,113.667,359.743,113.667z"/>
</g>
<g>
</g>
<g>
</g>
<g>
</g>
<g>
</g>
<g>
</g>
<g>
</g>
<g>
</g>
<g>
</g>
<g>
</g>
<g>
</g>
<g>
</g>
<g>
</g>
<g>
</g>
<g>
</g>
<g>
</g>
</svg>
