<?xml version="1.0" encoding="iso-8859-1"?>
<!-- Generator: Adobe Illustrator 19.0.0, SVG Export Plug-In . SVG Version: 6.00 Build 0)  -->
<svg version="1.1" id="Capa_1" xmlns="http://www.w3.org/2000/svg" xmlns:xlink="http://www.w3.org/1999/xlink" x="0px" y="0px"
	 viewBox="0 0 381.28 381.28" style="enable-background:new 0 0 381.28 381.28;" xml:space="preserve">
<path style="fill:#CE7419;" d="M54.72,327.32h271.92c12.415,0,22.48,10.047,22.48,22.44l0,0c0,12.393-10.065,22.44-22.48,22.44
	H54.72c-12.415,0-22.48-10.047-22.48-22.44l0,0C32.24,337.367,42.305,327.32,54.72,327.32z"/>
<g>
	<path style="fill:#FCBA29;" d="M28.56,114.68l73.28,48c-12.236,18.393-7.246,43.223,11.147,55.459
		c18.393,12.236,43.223,7.246,55.459-11.147c12.237-18.393,7.246-43.223-11.147-55.459c-2.102-1.398-4.332-2.595-6.659-3.573
		l40-94.88l40,94.88c-20.405,8.466-30.082,31.871-21.616,52.276c8.466,20.405,31.871,30.082,52.276,21.616
		c20.405-8.466,30.082-31.871,21.616-52.276c-0.989-2.384-2.207-4.667-3.636-6.816l73.28-48l-45.84,212.56h-232L28.56,114.68z"/>
	<path style="fill:#E99A23;" d="M190.64,53.08l40,94.88c-20.405,8.466-30.082,31.871-21.616,52.276
		c8.466,20.405,31.871,30.082,52.276,21.616c20.405-8.466,30.082-31.871,21.616-52.276c-0.989-2.384-2.207-4.667-3.636-6.816
		l73.28-48l-45.84,212.56H190.64V53.08z"/>
</g>
<g>
	<circle style="fill:#FCBA29;" cx="18.48" cy="98.28" r="18.48"/>
	<circle style="fill:#FCBA29;" cx="362.8" cy="100.28" r="18.48"/>
	<circle style="fill:#FCBA29;" cx="190.64" cy="31.08" r="22"/>
</g>
<g>
	<path style="fill:#CE7419;" d="M190.64,235.08l12.96,17.28l13.04,17.28l-13.04,17.28l-12.96,17.28l-12.96-17.28l-13.04-17.28
		l13.04-17.28L190.64,235.08z"/>
	<path style="fill:#CE7419;" d="M274.08,250.44l9.28,12.32l9.28,12.32l-9.28,12.32l-9.28,12.4l-9.28-12.4l-9.28-12.32l9.28-12.32
		L274.08,250.44z"/>
	<path style="fill:#CE7419;" d="M107.2,250.44l9.28,12.32l9.28,12.32l-9.28,12.32l-9.28,12.4l-9.28-12.4l-9.28-12.32l9.28-12.32
		L107.2,250.44z"/>
</g>
<g>
</g>
<g>
</g>
<g>
</g>
<g>
</g>
<g>
</g>
<g>
</g>
<g>
</g>
<g>
</g>
<g>
</g>
<g>
</g>
<g>
</g>
<g>
</g>
<g>
</g>
<g>
</g>
<g>
</g>
</svg>
